<svg xmlns="http://www.w3.org/2000/svg" xmlns:xlink="http://www.w3.org/1999/xlink" width="500" zoomAndPan="magnify" viewBox="0 0 375 374.999991" height="500" preserveAspectRatio="xMidYMid meet" version="1.0"><defs><g/></defs><g fill="#ffffff" fill-opacity="1"><g transform="translate(0.0000045, 225.603867)"><g><path d="M 13.96875 0.6875 C 11.675781 0.6875 9.679688 0.265625 7.984375 -0.578125 C 6.296875 -1.429688 5 -2.675781 4.09375 -4.3125 C 3.1875 -5.945312 2.734375 -7.910156 2.734375 -10.203125 C 2.734375 -12.328125 3.1875 -14.109375 4.09375 -15.546875 C 5 -16.992188 6.40625 -18.175781 8.3125 -19.09375 C 10.226562 -20.007812 12.722656 -20.71875 15.796875 -21.21875 C 17.941406 -21.570312 19.570312 -21.953125 20.6875 -22.359375 C 21.800781 -22.773438 22.550781 -23.238281 22.9375 -23.75 C 23.332031 -24.269531 23.53125 -24.929688 23.53125 -25.734375 C 23.53125 -26.890625 23.128906 -27.769531 22.328125 -28.375 C 21.523438 -28.976562 20.191406 -29.28125 18.328125 -29.28125 C 16.335938 -29.28125 14.441406 -28.835938 12.640625 -27.953125 C 10.847656 -27.066406 9.289062 -25.894531 7.96875 -24.4375 L 7.3125 -24.4375 L 3.546875 -30.125 C 5.359375 -32.144531 7.578125 -33.71875 10.203125 -34.84375 C 12.828125 -35.96875 15.6875 -36.53125 18.78125 -36.53125 C 23.53125 -36.53125 26.96875 -35.519531 29.09375 -33.5 C 31.21875 -31.488281 32.28125 -28.628906 32.28125 -24.921875 L 32.28125 -9.359375 C 32.28125 -7.753906 32.984375 -6.953125 34.390625 -6.953125 C 34.929688 -6.953125 35.460938 -7.050781 35.984375 -7.25 L 36.4375 -7.125 L 37.078125 -0.84375 C 36.585938 -0.519531 35.894531 -0.253906 35 -0.046875 C 34.113281 0.160156 33.140625 0.265625 32.078125 0.265625 C 29.929688 0.265625 28.253906 -0.144531 27.046875 -0.96875 C 25.847656 -1.789062 24.988281 -3.082031 24.46875 -4.84375 L 23.796875 -4.90625 C 22.035156 -1.175781 18.757812 0.6875 13.96875 0.6875 Z M 16.828125 -6.046875 C 18.910156 -6.046875 20.570312 -6.742188 21.8125 -8.140625 C 23.0625 -9.535156 23.6875 -11.476562 23.6875 -13.96875 L 23.6875 -17.609375 L 23.078125 -17.75 C 22.535156 -17.3125 21.820312 -16.945312 20.9375 -16.65625 C 20.0625 -16.363281 18.800781 -16.078125 17.15625 -15.796875 C 15.207031 -15.472656 13.804688 -14.914062 12.953125 -14.125 C 12.097656 -13.332031 11.671875 -12.210938 11.671875 -10.765625 C 11.671875 -9.222656 12.125 -8.050781 13.03125 -7.25 C 13.9375 -6.445312 15.203125 -6.046875 16.828125 -6.046875 Z M 16.828125 -6.046875 "/></g></g></g><g fill="#ffffff" fill-opacity="1"><g transform="translate(37.79612, 225.603867)"><g><path d="M 5.171875 0 L 5.171875 -35.84375 L 13.90625 -35.84375 L 13.90625 -30.515625 L 14.59375 -30.390625 C 15.457031 -32.378906 16.59375 -33.835938 18 -34.765625 C 19.414062 -35.703125 21.128906 -36.171875 23.140625 -36.171875 C 25.179688 -36.171875 26.726562 -35.828125 27.78125 -35.140625 L 26.265625 -27.359375 L 25.578125 -27.234375 C 24.992188 -27.472656 24.429688 -27.644531 23.890625 -27.75 C 23.347656 -27.863281 22.6875 -27.921875 21.90625 -27.921875 C 19.394531 -27.921875 17.476562 -27.035156 16.15625 -25.265625 C 14.832031 -23.503906 14.171875 -20.671875 14.171875 -16.765625 L 14.171875 0 Z M 5.171875 0 "/></g></g></g><g fill="#ffffff" fill-opacity="1"><g transform="translate(65.907592, 225.603867)"><g><path d="M 9.65625 -40.140625 C 8.03125 -40.140625 6.707031 -40.628906 5.6875 -41.609375 C 4.664062 -42.597656 4.15625 -43.875 4.15625 -45.4375 C 4.15625 -46.976562 4.664062 -48.238281 5.6875 -49.21875 C 6.707031 -50.207031 8.03125 -50.703125 9.65625 -50.703125 C 10.738281 -50.703125 11.703125 -50.472656 12.546875 -50.015625 C 13.390625 -49.566406 14.039062 -48.945312 14.5 -48.15625 C 14.96875 -47.363281 15.203125 -46.457031 15.203125 -45.4375 C 15.203125 -44.414062 14.96875 -43.503906 14.5 -42.703125 C 14.039062 -41.898438 13.390625 -41.269531 12.546875 -40.8125 C 11.703125 -40.363281 10.738281 -40.140625 9.65625 -40.140625 Z M 5.171875 0 L 5.171875 -35.84375 L 14.171875 -35.84375 L 14.171875 0 Z M 5.171875 0 "/></g></g></g><g fill="#ffffff" fill-opacity="1"><g transform="translate(85.21188, 225.603867)"><g><path d="M 6.265625 0 L 6.265625 -28.734375 L 1.203125 -28.734375 L 1.203125 -35.875 L 6.265625 -35.875 C 5.898438 -37.394531 5.71875 -38.816406 5.71875 -40.140625 C 5.71875 -42.410156 6.238281 -44.351562 7.28125 -45.96875 C 8.320312 -47.582031 9.816406 -48.8125 11.765625 -49.65625 C 13.710938 -50.5 16.03125 -50.921875 18.71875 -50.921875 C 22.6875 -50.921875 25.644531 -50.238281 27.59375 -48.875 L 25.484375 -42.25 L 24.796875 -42.125 C 23.453125 -43.070312 21.726562 -43.546875 19.625 -43.546875 C 18 -43.546875 16.78125 -43.148438 15.96875 -42.359375 C 15.15625 -41.566406 14.75 -40.488281 14.75 -39.125 C 14.75 -38.539062 14.785156 -38.003906 14.859375 -37.515625 C 14.941406 -37.035156 15.082031 -36.488281 15.28125 -35.875 L 25.515625 -35.875 L 25.515625 -28.734375 L 15.28125 -28.734375 L 15.28125 0 Z M 6.265625 0 "/></g></g></g><g fill="#ffffff" fill-opacity="1"><g transform="translate(111.080925, 225.603867)"><g><path d="M 16.40625 0.6875 C 12.382812 0.6875 9.410156 -0.410156 7.484375 -2.609375 C 5.566406 -4.816406 4.609375 -7.976562 4.609375 -12.09375 L 4.609375 -35.84375 L 13.625 -35.84375 L 13.625 -13.234375 C 13.625 -11.046875 14.09375 -9.445312 15.03125 -8.4375 C 15.976562 -7.425781 17.4375 -6.921875 19.40625 -6.921875 C 21.894531 -6.921875 23.832031 -7.738281 25.21875 -9.375 C 26.601562 -11.007812 27.296875 -13.582031 27.296875 -17.09375 L 27.296875 -35.84375 L 36.296875 -35.84375 L 36.296875 0 L 27.65625 0 L 27.65625 -5.265625 L 26.96875 -5.421875 C 25.820312 -3.367188 24.421875 -1.835938 22.765625 -0.828125 C 21.109375 0.179688 18.988281 0.6875 16.40625 0.6875 Z M 16.40625 0.6875 "/></g></g></g><g fill="#ffffff" fill-opacity="1"><g transform="translate(152.549396, 225.603867)"><g><path d="M 14.890625 0.6875 C 11.660156 0.6875 9.191406 -0.179688 7.484375 -1.921875 C 5.785156 -3.671875 4.9375 -6.320312 4.9375 -9.875 L 4.9375 -50.25 L 13.9375 -50.25 L 13.9375 -10.234375 C 13.9375 -8.046875 14.847656 -6.953125 16.671875 -6.953125 C 17.191406 -6.953125 17.742188 -7.039062 18.328125 -7.21875 L 18.78125 -7.078125 L 19.59375 -0.15625 C 19.09375 0.101562 18.429688 0.304688 17.609375 0.453125 C 16.785156 0.609375 15.878906 0.6875 14.890625 0.6875 Z M 14.890625 0.6875 "/></g></g></g><g fill="#ffffff" fill-opacity="1"><g transform="translate(173.153636, 225.603867)"><g/></g></g><g fill="#ffffff" fill-opacity="1"><g transform="translate(188.868983, 225.603867)"><g><path d="M 8.90625 -42.765625 C 7.78125 -42.765625 6.863281 -43.117188 6.15625 -43.828125 C 5.457031 -44.535156 5.109375 -45.429688 5.109375 -46.515625 C 5.109375 -47.597656 5.457031 -48.488281 6.15625 -49.1875 C 6.863281 -49.894531 7.78125 -50.25 8.90625 -50.25 C 10.03125 -50.25 10.941406 -49.894531 11.640625 -49.1875 C 12.347656 -48.488281 12.703125 -47.597656 12.703125 -46.515625 C 12.703125 -45.429688 12.347656 -44.535156 11.640625 -43.828125 C 10.941406 -43.117188 10.03125 -42.765625 8.90625 -42.765625 Z M 6.234375 0 L 6.234375 -35.84375 L 11.53125 -35.84375 L 11.53125 0 Z M 6.234375 0 "/></g></g></g><g fill="#ffffff" fill-opacity="1"><g transform="translate(206.645837, 225.603867)"><g><path d="M 16.34375 0.6875 C 14.09375 0.6875 12.007812 0.390625 10.09375 -0.203125 C 8.175781 -0.804688 6.554688 -1.625 5.234375 -2.65625 C 3.910156 -3.695312 2.976562 -4.867188 2.4375 -6.171875 L 5.5625 -9.421875 L 6.234375 -9.421875 C 7.410156 -7.648438 8.820312 -6.3125 10.46875 -5.40625 C 12.113281 -4.507812 14.070312 -4.0625 16.34375 -4.0625 C 18.988281 -4.0625 21 -4.578125 22.375 -5.609375 C 23.75 -6.640625 24.4375 -8.070312 24.4375 -9.90625 C 24.4375 -11.320312 24.019531 -12.488281 23.1875 -13.40625 C 22.351562 -14.320312 21.003906 -15.007812 19.140625 -15.46875 L 13.09375 -16.96875 C 9.863281 -17.75 7.503906 -18.984375 6.015625 -20.671875 C 4.535156 -22.359375 3.796875 -24.445312 3.796875 -26.9375 C 3.796875 -28.894531 4.296875 -30.59375 5.296875 -32.03125 C 6.296875 -33.46875 7.734375 -34.578125 9.609375 -35.359375 C 11.484375 -36.140625 13.707031 -36.53125 16.28125 -36.53125 C 19.570312 -36.53125 22.164062 -36.066406 24.0625 -35.140625 C 25.957031 -34.222656 27.4375 -32.941406 28.5 -31.296875 L 25.515625 -28.375 L 24.859375 -28.375 C 23.710938 -29.695312 22.460938 -30.648438 21.109375 -31.234375 C 19.753906 -31.816406 18.144531 -32.109375 16.28125 -32.109375 C 13.914062 -32.109375 12.101562 -31.6875 10.84375 -30.84375 C 9.59375 -30 8.96875 -28.773438 8.96875 -27.171875 C 8.96875 -25.722656 9.410156 -24.550781 10.296875 -23.65625 C 11.191406 -22.769531 12.742188 -22.054688 14.953125 -21.515625 L 20.890625 -20.078125 C 24.015625 -19.347656 26.269531 -18.125 27.65625 -16.40625 C 29.039062 -14.695312 29.734375 -12.554688 29.734375 -9.984375 C 29.734375 -7.878906 29.234375 -6.023438 28.234375 -4.421875 C 27.242188 -2.816406 25.738281 -1.5625 23.71875 -0.65625 C 21.707031 0.238281 19.25 0.6875 16.34375 0.6875 Z M 16.34375 0.6875 "/></g></g></g><g fill="#ffffff" fill-opacity="1"><g transform="translate(239.794615, 225.603867)"><g><path d="M 14.265625 0.6875 C 11.734375 0.6875 9.738281 -0.03125 8.28125 -1.46875 C 6.832031 -2.914062 6.109375 -5.070312 6.109375 -7.9375 L 6.109375 -50.25 L 11.40625 -50.25 L 11.40625 -8.28125 C 11.40625 -6.789062 11.691406 -5.710938 12.265625 -5.046875 C 12.835938 -4.390625 13.734375 -4.0625 14.953125 -4.0625 C 15.691406 -4.0625 16.4375 -4.179688 17.1875 -4.421875 L 17.640625 -4.296875 L 18.265625 -0.125 C 17.878906 0.132812 17.320312 0.332031 16.59375 0.46875 C 15.863281 0.613281 15.085938 0.6875 14.265625 0.6875 Z M 14.265625 0.6875 "/></g></g></g><g fill="#ffffff" fill-opacity="1"><g transform="translate(259.293895, 225.603867)"><g><path d="M 14.78125 0.6875 C 11.25 0.6875 8.492188 -0.234375 6.515625 -2.078125 C 4.535156 -3.921875 3.546875 -6.554688 3.546875 -9.984375 C 3.546875 -12.097656 3.984375 -13.882812 4.859375 -15.34375 C 5.734375 -16.8125 7.09375 -18.003906 8.9375 -18.921875 C 10.78125 -19.847656 13.1875 -20.5625 16.15625 -21.0625 C 18.75 -21.488281 20.722656 -21.972656 22.078125 -22.515625 C 23.429688 -23.054688 24.34375 -23.660156 24.8125 -24.328125 C 25.28125 -25.003906 25.515625 -25.851562 25.515625 -26.875 C 25.515625 -28.5 24.957031 -29.742188 23.84375 -30.609375 C 22.726562 -31.484375 20.929688 -31.921875 18.453125 -31.921875 C 16.140625 -31.921875 14.15625 -31.46875 12.5 -30.5625 C 10.84375 -29.664062 9.320312 -28.328125 7.9375 -26.546875 L 7.28125 -26.546875 L 4.6875 -30.21875 C 6.195312 -32.15625 8.117188 -33.691406 10.453125 -34.828125 C 12.796875 -35.960938 15.460938 -36.53125 18.453125 -36.53125 C 22.679688 -36.53125 25.796875 -35.601562 27.796875 -33.75 C 29.804688 -31.894531 30.8125 -29.332031 30.8125 -26.0625 L 30.8125 -7.046875 C 30.8125 -5.054688 31.65625 -4.0625 33.34375 -4.0625 C 33.90625 -4.0625 34.445312 -4.160156 34.96875 -4.359375 L 35.421875 -4.21875 L 36.046875 -0.546875 C 35.648438 -0.285156 35.132812 -0.0859375 34.5 0.046875 C 33.863281 0.191406 33.207031 0.265625 32.53125 0.265625 C 30.5625 0.265625 29.070312 -0.164062 28.0625 -1.03125 C 27.050781 -1.90625 26.40625 -3.1875 26.125 -4.875 L 25.453125 -4.9375 C 24.429688 -3.050781 23.050781 -1.640625 21.3125 -0.703125 C 19.582031 0.222656 17.40625 0.6875 14.78125 0.6875 Z M 15.953125 -3.546875 C 17.953125 -3.546875 19.679688 -4.003906 21.140625 -4.921875 C 22.597656 -5.847656 23.71875 -7.144531 24.5 -8.8125 C 25.28125 -10.476562 25.671875 -12.40625 25.671875 -14.59375 L 25.671875 -19.140625 L 25.0625 -19.265625 C 24.257812 -18.703125 23.28125 -18.234375 22.125 -17.859375 C 20.976562 -17.484375 19.378906 -17.140625 17.328125 -16.828125 C 15.242188 -16.546875 13.585938 -16.113281 12.359375 -15.53125 C 11.140625 -14.945312 10.269531 -14.203125 9.75 -13.296875 C 9.226562 -12.398438 8.96875 -11.296875 8.96875 -9.984375 C 8.96875 -7.878906 9.582031 -6.28125 10.8125 -5.1875 C 12.050781 -4.09375 13.765625 -3.546875 15.953125 -3.546875 Z M 15.953125 -3.546875 "/></g></g></g><g fill="#ffffff" fill-opacity="1"><g transform="translate(296.375038, 225.603867)"><g><path d="M 6.234375 0 L 6.234375 -35.84375 L 11.28125 -35.84375 L 11.28125 -30.546875 L 11.953125 -30.421875 C 13.171875 -32.429688 14.640625 -33.953125 16.359375 -34.984375 C 18.085938 -36.015625 20.15625 -36.53125 22.5625 -36.53125 C 25.332031 -36.53125 27.472656 -36.003906 28.984375 -34.953125 C 30.503906 -33.898438 31.6875 -32.207031 32.53125 -29.875 L 33.21875 -29.875 C 34.445312 -32.0625 35.96875 -33.71875 37.78125 -34.84375 C 39.59375 -35.96875 41.820312 -36.53125 44.46875 -36.53125 C 48.144531 -36.53125 50.890625 -35.53125 52.703125 -33.53125 C 54.515625 -31.539062 55.421875 -28.507812 55.421875 -24.4375 L 55.421875 0 L 50.109375 0 L 50.109375 -24.3125 C 50.109375 -26.914062 49.5625 -28.832031 48.46875 -30.0625 C 47.375 -31.300781 45.613281 -31.921875 43.1875 -31.921875 C 40.332031 -31.921875 38 -30.878906 36.1875 -28.796875 C 34.375 -26.710938 33.46875 -23.289062 33.46875 -18.53125 L 33.46875 0 L 28.171875 0 L 28.171875 -24.3125 C 28.171875 -26.914062 27.625 -28.832031 26.53125 -30.0625 C 25.4375 -31.300781 23.675781 -31.921875 21.25 -31.921875 C 18.394531 -31.921875 16.0625 -30.910156 14.25 -28.890625 C 12.4375 -26.878906 11.53125 -23.609375 11.53125 -19.078125 L 11.53125 0 Z M 6.234375 0 "/></g></g></g><g fill="#ff0000" fill-opacity="1"><g transform="translate(357.476237, 225.603867)"><g><path d="M 8.75 0.328125 C 7.507812 0.328125 6.53125 -0.015625 5.8125 -0.703125 C 5.101562 -1.398438 4.75 -2.328125 4.75 -3.484375 C 4.75 -4.609375 5.101562 -5.53125 5.8125 -6.25 C 6.53125 -6.976562 7.507812 -7.34375 8.75 -7.34375 C 10 -7.34375 10.976562 -6.992188 11.6875 -6.296875 C 12.40625 -5.609375 12.765625 -4.691406 12.765625 -3.546875 C 12.765625 -2.390625 12.398438 -1.453125 11.671875 -0.734375 C 10.953125 -0.0234375 9.976562 0.328125 8.75 0.328125 Z M 8.75 0.328125 "/></g></g></g></svg>